# xmcd
#
# Track frame offsets:
#   150
#   13130
#   33581
#   50109
#   69437
#   84537
#   103418
#   124784
#   145781
#   164080
#   173720
#   191869
#   211493
#   232949
#   252806
#   261355
#   280912
#   301731
#
# Disc length: 4328 seconds
#
# Revision: 0
# Processed by: cddbd v1.5.1PL0 Copyright (c) Steve Scherf et al.
# Submitted via: uFREEDB 1.6.0
#
DISCID=0d10e612
DTITLE=Mary J Blige - Love and Life
DYEAR=1900
DGENRE=R and B
TTITLE0=Love and Life
TTITLE1=Dont Go
TTITLE2=When We
TTITLE3=Not today
TTITLE4=finally mode
TTITLE5=ooh
TTITLE6=let me be the 1
TTITLE7=love @ 1st sight
TTITLE8=Willing and waiting
TTITLE9=Free
TTITLE10=Friends
TTITLE11=Press on
TTITLE12=Fell like making love
TTITLE13=its a wrap
TTITLE14=message in our music
TTITLE15=all my love
TTITLE16=Special part of me
TTITLE17=Ultimate relationship
EXTD=
EXTT0=
EXTT1=
EXTT2=
EXTT3=
EXTT4=
EXTT5=
EXTT6=
EXTT7=
EXTT8=
EXTT9=
EXTT10=
EXTT11=
EXTT12=
EXTT13=
EXTT14=
EXTT15=
EXTT16=
EXTT17=
PLAYORDER=
